<svg xmlns="http://www.w3.org/2000/svg" width="1200" height="675" viewBox="0 0 1200 675" role="img">
  <defs>
    <linearGradient id="bg" x1="0" y1="0" x2="0" y2="1">
      <stop offset="0" stop-color="#F7F4EE"/>
      <stop offset="1" stop-color="#EFEAE0"/>
    </linearGradient>
    <pattern id="dots" width="26" height="26" patternUnits="userSpaceOnUse">
      <circle cx="2" cy="2" r="1.4" fill="#1B3A4B" opacity="0.06"/>
    </pattern>
  </defs>
  <rect width="1200" height="675" fill="url(#bg)"/>
  <rect width="1200" height="675" fill="url(#dots)"/>
  <rect x="40" y="40" width="1120" height="595" rx="22" fill="none" stroke="#1B3A4B" stroke-opacity="0.12" stroke-width="2"/>
  <!-- printer mark -->
  <g transform="translate(480, 168)" fill="none" stroke="#1B3A4B" stroke-width="6" stroke-linecap="round" stroke-linejoin="round" stroke-opacity="0.85">
    <rect x="40" y="70" width="160" height="86" rx="12"/>
    <path d="M72 70V34a10 10 0 0 1 10-10h76a10 10 0 0 1 10 10v36"/>
    <path d="M72 156v34a10 10 0 0 0 10 10h76a10 10 0 0 0 10-10v-34"/>
    <rect x="92" y="156" width="56" height="44" rx="4" fill="#F7F4EE"/>
  </g>
  <circle cx="696" cy="196" r="30" fill="#FF6B35"/>
  <text x="696" y="206" font-family="Georgia, serif" font-size="30" font-weight="700" fill="#fff" text-anchor="middle">2</text>
  <text x="600" y="470" font-family="Georgia, 'Times New Roman', serif" font-size="42" font-weight="700" fill="#1B3A4B" text-anchor="middle">Step 2 — Use Printer Offline</text>
  <text x="600" y="516" font-family="Arial, sans-serif" font-size="22" fill="#1B3A4B" fill-opacity="0.55" text-anchor="middle">Illustration placeholder · offline</text>
</svg>
